PathFileType	4	(X/Y/Z)	Run_500 01
DataRate	CameraRate	NumFrames	NumMarkers	Units	OrigDataRate	OrigDataStartFrame	OrigNumFrames
120	120	4	42	mm	120	496	128
Frame#	Time	RASI			LPSI			RPSI			RTH3			LTH1			LTH2			LTH3			RTB1			RTB2			RTB3			LTB1			LTB2			LTB3			RCAL			RTOE			RMT5			LCAL			LTOE			LMT5			LACR			RACR			CLAV			C7			RUA1			RUA2			RUA3			RLEL			LUA1			LUA2			LUA3			LLEL			LMEL			RFAsuperior			RFAradius			RFAulna			LFAsuperior			LFAradius			LFAulna			LASI			RTH1			RMEL			RTH2		
		X1	Y1	Z1	X2	Y2	Z2	X3	Y3	Z3	X4	Y4	Z4	X5	Y5	Z5	X6	Y6	Z6	X7	Y7	Z7	X8	Y8	Z8	X9	Y9	Z9	X10	Y10	Z10	X11	Y11	Z11	X12	Y12	Z12	X13	Y13	Z13	X14	Y14	Z14	X15	Y15	Z15	X16	Y16	Z16	X17	Y17	Z17	X18	Y18	Z18	X19	Y19	Z19	X20	Y20	Z20	X21	Y21	Z21	X22	Y22	Z22	X23	Y23	Z23	X24	Y24	Z24	X25	Y25	Z25	X26	Y26	Z26	X27	Y27	Z27	X28	Y28	Z28	X29	Y29	Z29	X30	Y30	Z30	X31	Y31	Z31	X32	Y32	Z32	X33	Y33	Z33	X34	Y34	Z34	X35	Y35	Z35	X36	Y36	Z36	X37	Y37	Z37	X38	Y38	Z38	X39	Y39	Z39	X40	Y40	Z40	X41	Y41	Z41	X42	Y42	Z42	

496	  4.133333	1053.619864	1037.769555	-215.098431	901.559533	1086.417597	-384.953828	888.846174	1083.907183	-287.789233	1199.288475	689.647326	-218.303204	927.107303	862.225271	-503.974537	914.650930	744.479393	-471.401655	790.259117	687.713929	-450.578250	1314.207939	494.108500	-284.267619	1290.929311	429.925581	-217.019921	1315.690335	369.705087	-284.709564	659.129117	494.215215	-369.666043	579.109304	478.183143	-445.416813	517.042327	398.032462	-376.282947	1244.902910	176.701849	-279.946846	1444.575923	233.908108	-324.823121	1438.771573	210.490563	-231.202124	367.004419	411.045295	-386.913686	403.635444	215.874029	-325.135920	376.547176	205.430724	-411.356773	1064.372287	1500.248494	-489.274041	914.313861	1502.886860	-135.676449	1030.260612	1486.260439	-270.315930	930.031894	1546.387145	-349.341214	798.562468	1428.152876	-100.693714	748.393320	1453.489186	-153.292664	718.895578	1387.938871	-89.599067	652.139111	1350.036420	-86.739675	1040.504539	1373.893458	-566.620889	975.679108	1334.207362	-594.711956	1043.860741	1291.028930	-589.748697	1007.121928	1217.599595	-628.514610	933.870284	1210.561953	-577.312982	690.846775	1227.651120	-80.165954	723.206992	1115.207903	-125.928826	667.277883	1100.351327	-85.926556	1098.777819	1208.805441	-535.789143	1124.114126	1234.941422	-414.464727	1167.886531	1191.380031	-446.482160	1056.904091	1026.614957	-440.023518	1045.047834	893.264034	-159.093642	640.583356	1339.423072	-168.371170	  0.000000	  0.000000	 -0.000000	
497	  4.141667	1053.702485	1036.991621	-216.174384	901.932441	1090.205066	-383.978034	888.875349	1084.915727	-286.458115	1190.122079	681.018864	-218.590696	930.770436	864.752697	-503.958876	920.554429	744.792266	-469.419113	796.885327	686.163998	-453.737498	1313.325658	489.573590	-285.867139	1294.615523	424.041608	-218.802491	1323.598094	366.164182	-287.842671	657.467752	499.419146	-373.060967	573.975948	492.439428	-447.838608	507.773991	414.909309	-379.814925	1267.815634	167.274317	-283.473000	1461.214598	242.932379	-329.213841	1458.989833	217.137457	-236.176882	356.516537	438.316039	-388.019704	386.093731	240.792264	-331.020270	358.504861	233.263484	-417.601238	1063.308100	1502.204354	-489.592090	914.732397	1503.788356	-135.223471	1030.388330	1487.856502	-270.058224	929.791095	1547.508601	-348.839982	799.104616	1429.070562	-100.528274	749.400824	1454.153885	-153.755434	719.293123	1389.415952	-89.912622	652.762196	1351.064488	-86.798304	1038.802726	1376.042365	-567.601268	973.925555	1336.477327	-595.750823	1042.519895	1293.699836	-592.568409	1004.644281	1220.599081	-630.008395	931.416232	1213.802771	-578.540612	693.319691	1229.269638	-80.193984	727.581363	1117.141142	-126.136682	671.852732	1101.361262	-86.204535	1096.282828	1209.986306	-537.539263	1121.735224	1234.340430	-415.785181	1165.498018	1191.579431	-448.594802	1057.583071	1030.521515	-441.662700	1042.648892	890.440771	-158.869585	641.669733	1339.965996	-168.490164	  0.000000	  0.000000	 -0.000000	
498	  4.150000	1053.437295	1035.874841	-216.929085	901.913422	1092.884743	-383.180283	887.755363	1084.811650	-285.056254	1179.524015	671.779162	-218.693052	936.048114	865.243327	-503.847877	927.419406	744.267718	-467.770294	804.452095	683.614576	-456.542259	1309.991672	485.348510	-288.663288	1296.403167	419.469397	-221.160876	1327.323530	363.175749	-291.229679	658.499540	502.165491	-377.579693	571.517661	507.446770	-450.254484	501.763018	431.278480	-383.970651	1283.839973	160.438899	-286.380606	1471.243129	249.847605	-333.262899	1472.132521	222.875650	-240.581460	350.306771	466.443030	-388.444394	372.223602	266.329035	-337.765726	342.342021	262.452965	-423.883139	1061.920717	1503.512621	-490.064953	915.874912	1504.193236	-134.348192	1030.794239	1488.887313	-269.955779	929.625585	1548.101155	-347.945556	800.480512	1428.903785	-99.837637	751.249545	1453.658452	-153.653637	720.896607	1389.411470	-89.689211	654.578246	1350.604897	-86.199972	1036.159909	1377.651717	-568.551119	970.988430	1338.129227	-596.108909	1040.106977	1295.831318	-595.415738	1001.098101	1222.867634	-631.253305	928.152566	1216.482943	-579.057363	696.832680	1229.220593	-79.674925	732.818332	1117.514696	-125.683061	677.286124	1100.771136	-85.980500	1093.224382	1209.690084	-539.511080	1119.418726	1231.872587	-417.429383	1163.032357	1189.940619	-451.390707	1058.455701	1033.851890	-443.415360	1039.646668	887.385970	-158.097827	643.926738	1338.956932	-167.989118	 -0.000000	 -0.000000	  0.000000	
499	  4.158333	1052.819244	1034.455472	-217.462963	901.504513	1093.987562	-382.585526	886.139931	1083.757260	-284.094609	1168.904029	662.939818	-218.219990	942.468371	864.163228	-503.911629	934.572915	743.306123	-467.399882	812.275059	680.505824	-458.816759	1304.840062	481.192286	-291.876638	1295.769872	415.533438	-223.777499	1327.204944	360.245270	-294.550778	661.978673	502.644001	-382.997396	572.949659	521.869416	-452.405353	499.280169	447.019970	-388.229311	1292.394494	155.334132	-289.232943	1475.415277	253.197920	-336.985093	1478.324762	225.857394	-244.441650	349.076678	495.036538	-388.195473	361.724148	292.301903	-345.223856	328.762589	293.140312	-430.297813	1060.376045	1504.148789	-490.570948	917.565457	1504.074302	-133.225701	1031.410182	1489.248863	-270.023861	929.530778	1548.147156	-346.725666	802.512824	1427.655075	-98.660200	753.632267	1451.954543	-152.928879	723.519040	1387.835063	-88.841771	657.437314	1348.546837	-84.888001	1032.717620	1378.893951	-569.385456	967.023276	1339.395806	-595.773670	1036.601970	1297.479287	-598.072680	996.548070	1224.472123	-632.226576	924.098214	1218.697223	-578.913555	701.331921	1227.462646	-78.593693	738.997451	1116.351092	-124.642677	683.652354	1098.604406	-85.254529	1089.538196	1208.008066	-541.658647	1117.135187	1227.812294	-419.367931	1160.267531	1186.509098	-454.763605	1059.527101	1036.201890	-444.548242	1035.789807	883.555379	-157.053402	647.123907	1336.371679	-166.789854	 -0.000000	 -0.000000	  0.000000	
